<?xml version="1.0" encoding="UTF-8" standalone="no"?>
<!-- Created with Inkscape (http://www.inkscape.org/) -->

<svg
   xmlns:dc="http://purl.org/dc/elements/1.1/"
   xmlns:cc="http://creativecommons.org/ns#"
   xmlns:rdf="http://www.w3.org/1999/02/22-rdf-syntax-ns#"
   xmlns:svg="http://www.w3.org/2000/svg"
   xmlns="http://www.w3.org/2000/svg"
   xmlns:sodipodi="http://sodipodi.sourceforge.net/DTD/sodipodi-0.dtd"
   xmlns:inkscape="http://www.inkscape.org/namespaces/inkscape"
   width="210mm"
   height="297mm"
   viewBox="0 0 210 297"
   version="1.1"
   id="svg8"
   inkscape:version="0.92.2 (5c3e80d, 2017-08-06)"
   sodipodi:docname="Laura Tan Favicon v3.svg"
   inkscape:export-filename="C:\Users\Collin\Desktop\Laura Tan Favicon v2.png"
   inkscape:export-xdpi="300"
   inkscape:export-ydpi="300">
  <defs
     id="defs2" />
  <sodipodi:namedview
     id="base"
     pagecolor="#ffffff"
     bordercolor="#666666"
     borderopacity="1.0"
     inkscape:pageopacity="0.0"
     inkscape:pageshadow="2"
     inkscape:zoom="0.98994949"
     inkscape:cx="-152.57204"
     inkscape:cy="433.17292"
     inkscape:document-units="mm"
     inkscape:current-layer="layer1"
     showgrid="false"
     inkscape:window-width="2880"
     inkscape:window-height="1814"
     inkscape:window-x="-13"
     inkscape:window-y="-13"
     inkscape:window-maximized="1" />
  <metadata
     id="metadata5">
    <rdf:RDF>
      <cc:Work
         rdf:about="">
        <dc:format>image/svg+xml</dc:format>
        <dc:type
           rdf:resource="http://purl.org/dc/dcmitype/StillImage" />
        <dc:title></dc:title>
      </cc:Work>
    </rdf:RDF>
  </metadata>
  <g
     inkscape:label="Layer 1"
     inkscape:groupmode="layer"
     id="layer1">
    <path
       style="fill:#000000;stroke-width:1.00038636"
       d="m 55.96436,218.87238 c -4.125073,-1.85045 -5.632424,-5.72593 -5.587317,-14.36529 0.155248,-29.73728 33.270077,-101.32239 46.871121,-101.32239 3.999336,0 5.258406,1.68116 5.258406,7.02121 0,5.83862 -2.14809,13.08999 -7.203724,24.31787 -2.187529,4.85819 -3.750324,9.06 -3.472951,9.33741 0.277525,0.27752 2.990686,0.19358 6.029541,-0.18603 l 5.525154,-0.69033 6.52981,-11.91333 c 7.19639,-13.12952 9.59875,-19.86608 9.59875,-26.91612 0,-4.492701 -0.1535,-4.737577 -4.0742,-6.505623 -2.24076,-1.010458 -4.71675,-2.754604 -5.5021,-3.875875 -1.82909,-2.611362 -1.82912,-8.700714 -1.1e-4,-13.078163 l 1.42785,-3.417317 4.11947,1.618175 c 4.9799,1.956162 10.03141,7.423659 10.03141,10.857506 0,1.378306 -0.83805,4.176226 -1.86232,6.217604 -1.11222,2.216554 -2.08953,6.935263 -2.4263,11.714683 -0.52779,7.49027 -0.47988,7.7621 0.74735,4.24217 2.59867,-7.45347 6.24502,-9.49479 13.74598,-7.69534 2.6406,0.63347 4.8011,1.72715 4.8011,2.4304 0,2.46114 -2.8472,8.04411 -5.16468,10.12728 -3.45624,3.10676 -5.56229,3.54303 -9.38779,1.94465 -3.3751,-1.41022 -3.47915,-1.37885 -5.83932,1.76061 -3.09077,4.11132 -12.70355,20.95406 -12.22968,21.42793 0.1985,0.19851 6.15662,-0.38755 13.24004,-1.30255 15.30756,-1.97741 29.18564,-1.56064 34.66841,1.0411 4.13285,1.96116 5.33286,5.27954 1.46948,4.06346 -10.85612,-3.41721 -12.53495,-3.64657 -22.25859,-3.04101 -9.61476,0.5988 -22.70643,2.0575 -27.1159,3.02131 -1.60495,0.35088 -3.08366,2.91431 -6.21318,10.77143 -14.71984,36.95605 -16.04829,57.52527 -3.782238,58.56356 4.956458,0.41954 11.127408,-3.24579 20.180498,-11.98656 3.89313,-3.75887 7.38196,-6.83425 7.75299,-6.83425 2.35877,0 -0.29832,4.2301 -6.32249,10.06628 -7.53703,7.30154 -17.32256,12.94258 -22.451587,12.94258 -5.868168,0 -10.566839,-5.76854 -10.566839,-12.97287 0,-1.66832 -0.303991,-3.0333 -0.675851,-3.0333 -0.371671,0 -3.185293,2.61478 -6.252392,5.81066 -8.329591,8.67918 -17.589426,12.53817 -23.607801,9.8384 z m 14.370584,-6.69813 c 3.339065,-2.22976 8.188409,-6.39388 10.776343,-9.25359 4.245406,-4.69133 4.872332,-6.03052 6.414332,-13.70275 0.939991,-4.67682 4.284993,-15.25591 7.433346,-23.50908 3.148356,-8.25318 5.967985,-15.81659 6.265815,-16.80759 0.48782,-1.62318 -0.0854,-1.77192 -5.783399,-1.50056 l -6.324911,0.30134 -6.409266,11.50445 c -8.139634,14.61034 -15.957241,25.50624 -23.380567,32.5869 l -5.838994,5.56943 v 5.98114 c 0,13.16177 5.804802,16.20433 16.847301,8.83042 z M 61.43056,184.89654 c 6.266502,-7.17854 11.077128,-14.22899 18.533954,-27.16314 5.688231,-9.86652 5.728271,-9.9916 3.642679,-11.37635 -2.432839,-1.61535 -2.931967,-4.70449 -0.608172,-3.76412 0.825352,0.33386 2.166846,0.877 2.981157,1.20674 1.09074,0.44169 2.427432,-1.468 5.076694,-7.2528 12.767188,-27.87804 10.669718,-39.764445 -3.627403,-20.55635 -5.829338,7.83171 -19.22772,34.49079 -24.316967,48.38411 -4.407426,12.03197 -8.679382,27.03689 -7.584741,26.6408 0.451303,-0.16334 3.107571,-2.91681 5.902799,-6.11889 z m 72.78898,-69.95731 c 2.805,-3.0796 4.5173,-6.5936 3.78798,-7.77366 -0.3331,-0.53884 -2.80424,-0.97972 -5.49165,-0.97972 -3.91519,0 -5.19566,0.44184 -6.4435,2.22337 -2.38304,3.40229 -1.89283,3.946 2.06624,2.2918 4.27891,-1.78784 4.37956,-1.80024 4.37956,-0.53931 0,0.53608 -1.46305,1.71877 -3.25124,2.62819 -4.11001,2.09023 -4.07965,2.05948 -3.29241,3.33326 1.16216,1.88042 6.09973,1.17142 8.24502,-1.18393 z m -15.7105,-19.507529 c -0.002,-0.412657 -0.92669,-2.264123 -2.0547,-4.114368 -1.12802,-1.850242 -1.81246,-3.602544 -1.52102,-3.894005 0.89333,-0.893319 3.81573,2.088171 5.1446,5.248627 l 1.25854,2.993252 1.29215,-2.835903 c 1.08125,-2.373091 1.0507,-3.265994 -0.18716,-5.471315 -1.57659,-2.808904 -7.37186,-7.182179 -9.5175,-7.182179 -1.53036,0 -2.92426,7.821623 -1.94419,10.909495 0.85576,2.696237 7.54024,6.554988 7.52924,4.346396 z"
       id="path21"
       inkscape:connector-curvature="0" />
    <path
       style="opacity:1;fill:#a6cdbd;fill-opacity:1;stroke:none;stroke-width:0.96974641;stroke-miterlimit:4;stroke-dasharray:none;stroke-dashoffset:0;stroke-opacity:0.9831461"
       d="m 435.8928,359.15149 c -8.10265,-4.38988 -15.42017,-11.80443 -16.30506,-16.52128 -1.79375,-9.56153 1.1987,-32.01992 4.95005,-37.1502 2.07109,-2.83239 7.03894,-1.47042 15.91178,4.36229 14.86578,9.7723 25.19175,22.43909 25.19175,30.90255 0,3.32638 -5.78897,18.70198 -7.03069,18.67365 -0.3,-0.007 -1.82998,-3.18564 -3.39995,-7.06398 -4.89316,-12.08764 -15.11339,-23.88992 -19.87394,-22.95033 -2.71872,0.53659 -1.12821,5.8945 5.03737,16.96921 3.27054,5.87458 6.25176,11.89761 6.62495,13.38453 0.61806,2.46252 0.42119,2.70107 -2.2089,2.67655 -1.58808,-0.0148 -5.5919,-1.49215 -8.89736,-3.28299 z"
       id="path814"
       inkscape:connector-curvature="0"
       transform="scale(0.26458333)" />
    <path
       style="opacity:1;fill:#a6cdbd;fill-opacity:1;stroke:none;stroke-width:0.96974641;stroke-miterlimit:4;stroke-dasharray:none;stroke-dashoffset:0;stroke-opacity:0.9831461"
       d="m 477.56635,439.1916 c -2.9311,-2.9311 -2.99223,-3.15983 -1.33417,-4.99197 0.95572,-1.05606 5.35322,-3.80113 9.77222,-6.10014 9.93504,-5.16878 14.99226,-9.45605 14.99226,-12.70972 0,-3.44247 -2.52867,-3.16508 -14.767,1.61987 -15.79305,6.17477 -17.24639,5.53015 -10.62589,-4.71306 2.66676,-4.126 5.14441,-6.63486 7.82868,-7.92731 7.7634,-3.73798 34.50959,-2.91162 37.48549,1.15817 0.69768,0.95414 0.97803,2.86076 0.6355,4.32192 -1.36486,5.82217 -8.21638,17.03651 -13.99079,22.89966 -6.87343,6.97907 -12.59488,9.51443 -21.47085,9.51443 -4.72902,0 -5.86174,-0.40814 -8.52545,-3.07185 z"
       id="path816"
       inkscape:connector-curvature="0"
       transform="scale(0.26458333)" />
  </g>
</svg>
